<svg width="1738" height="1362" viewBox="0 0 1738 1362" fill="none" xmlns="http://www.w3.org/2000/svg">
<path d="M1495.2 187.2V148C1495.2 143.2 1494.8 137.2 1494 130C1493.2 122.533 1492.4 116 1491.6 110.4L1549.6 120.4C1553.07 121.2 1555.07 123.067 1555.6 126C1556.13 128.933 1554.93 131.333 1552 133.2L1537.2 143.6V187.2H1610L1636.4 156C1638.8 153.333 1640.8 152 1642.4 152C1644.27 152 1646.27 153.2 1648.4 155.6L1678 191.6C1679.6 193.733 1679.87 195.733 1678.8 197.6C1678 199.467 1676.13 200.4 1673.2 200.4H1614.8C1611.6 213.2 1607.6 226.4 1602.8 240C1598.27 253.6 1593.2 266.933 1587.6 280C1581.47 293.333 1574.93 306.133 1568 318.4C1561.07 330.667 1553.73 342 1546 352.4C1560.4 363.867 1579.6 374 1603.6 382.8C1627.87 391.6 1653.6 398.933 1680.8 404.8L1677.6 416.8C1672.8 418.4 1668.27 421.333 1664 425.6C1659.73 430.133 1656.8 434.8 1655.2 439.6C1653.87 443.6 1652.53 447.2 1651.2 450.4C1650.13 453.6 1649.2 455.2 1648.4 455.2C1642 455.2 1633.47 453.2 1622.8 449.2C1612.13 445.2 1601.2 440 1590 433.6C1577.47 426.933 1564.4 418.8 1550.8 409.2C1537.2 399.333 1526.13 390 1517.6 381.2C1506.13 390.8 1494 399.467 1481.2 407.2C1468.67 414.667 1455.6 421.467 1442 427.6C1428.13 434 1413.87 439.733 1399.2 444.8C1384.8 449.867 1370 454.4 1354.8 458.4L1351.2 447.6C1379.2 436.933 1405.07 424.533 1428.8 410.4C1452.53 396 1474.8 377.6 1495.6 355.2C1478.8 333.333 1465.87 309.2 1456.8 282.8C1447.73 256.133 1439.73 228.667 1432.8 200.4H1408.8C1400.53 200.4 1391.87 200.667 1382.8 201.2C1373.73 201.733 1366.53 202.4 1361.2 203.2L1354 182.4C1363.33 184 1373.73 185.2 1385.2 186C1396.67 186.8 1406.4 187.2 1414.4 187.2H1495.2ZM1516.4 328.4C1527.07 309.2 1536.93 288.933 1546 267.6C1555.07 246 1562.4 223.6 1568 200.4H1443.2C1448.8 214.533 1454.27 227.467 1459.6 239.2C1464.93 250.933 1470.4 262 1476 272.4C1481.87 282.8 1488 292.533 1494.4 301.6C1500.8 310.667 1508.13 319.6 1516.4 328.4Z" fill="black"/>
<path d="M1450.8 601.4C1440.13 601.4 1430 601.533 1420.4 601.8C1410.8 602.067 1403.87 602.333 1399.6 602.6L1392 584.6C1398.93 585.4 1408 586.067 1419.2 586.6C1430.4 587.133 1440.93 587.4 1450.8 587.4H1500.8V584.6C1500.8 580.333 1500.4 574.733 1499.6 567.8C1498.8 560.867 1498 555 1497.2 550.2L1553.2 559.4C1555.87 559.933 1557.2 561.667 1557.2 564.6C1557.47 567.267 1556.4 569.4 1554 571L1540.4 579.4V587.4H1586.8L1604.4 571.8C1606.8 569.667 1608.67 568.733 1610 569C1611.6 569 1613.87 569.933 1616.8 571.8L1642 591C1643.87 592.6 1644.8 594.2 1644.8 595.8C1645.07 597.4 1644.4 599.267 1642.8 601.4L1630.8 615.4V626.6H1641.2L1658 605.4C1659.6 603.267 1661.33 602.2 1663.2 602.2C1665.33 602.2 1667.33 603.267 1669.2 605.4L1690 631C1691.6 632.867 1691.6 634.867 1690 637C1688.67 638.867 1687.07 639.8 1685.2 639.8H1631.2C1631.2 645.4 1631.2 650.333 1631.2 654.6C1631.47 658.6 1631.87 661.4 1632.4 663V672.6C1632.4 675.8 1630.53 678.467 1626.8 680.6C1623.07 682.467 1618.67 683.8 1613.6 684.6C1610.67 685.133 1608 685.533 1605.6 685.8C1603.47 685.8 1601.87 685.8 1600.8 685.8C1598.67 685.8 1596.8 685.133 1595.2 683.8C1593.6 682.467 1592.67 680.867 1592.4 679H1540.4V704.2H1606.8L1622.4 685.4C1624 683.533 1625.87 682.6 1628 682.6C1630.13 682.6 1632 683.533 1633.6 685.4L1652.4 709.8C1653.73 711.933 1653.87 713.8 1652.8 715.4C1651.73 716.733 1650 717.4 1647.6 717.4H1540.4V745H1630.8L1651.6 722.6C1653.2 720.733 1654.93 719.933 1656.8 720.2C1658.93 720.2 1660.93 721 1662.8 722.6L1688.4 749.8C1690 751.4 1690.13 753.4 1688.8 755.8C1687.47 757.933 1685.73 759 1683.6 759H1405.6C1396.53 759 1387.87 759.267 1379.6 759.8C1371.6 760.067 1365.73 760.333 1362 760.6L1355.2 743C1360 743.8 1367.2 744.333 1376.8 744.6C1386.67 744.867 1396.27 745 1405.6 745H1500.8V717.4H1431.2C1422.4 717.4 1413.73 717.667 1405.2 718.2C1396.93 718.467 1391.07 718.6 1387.6 718.6L1381.2 700.6C1386 701.667 1393.2 702.6 1402.8 703.4C1412.4 703.933 1421.87 704.2 1431.2 704.2H1500.8V679H1438.4C1434.67 679 1430.8 679.133 1426.8 679.4C1423.07 679.4 1419.33 679.533 1415.6 679.8C1412.13 679.8 1408.8 679.933 1405.6 680.2C1402.67 680.2 1400.13 680.2 1398 680.2L1390.8 662.2C1395.87 663 1403.07 663.667 1412.4 664.2C1421.73 664.733 1430.4 665 1438.4 665H1500.8V639.8H1408.4C1399.6 639.8 1391.2 640.067 1383.2 640.6C1375.2 640.867 1369.2 641.133 1365.2 641.4L1358 623.4C1362.8 624.467 1370 625.267 1379.6 625.8C1389.47 626.333 1399.07 626.6 1408.4 626.6H1500.8V601.4H1450.8ZM1591.6 601.4H1540.4V626.6H1591.6V601.4ZM1591.6 639.8H1540.4V665H1591.6V639.8ZM1405.6 847.4V820.2C1405.6 812.2 1405.2 802.733 1404.4 791.8C1403.6 780.6 1402.8 771 1402 763C1409.2 765.4 1417.73 768.467 1427.6 772.2C1437.73 775.933 1446.8 779.533 1454.8 783H1585.6L1606.4 765.8C1608.8 763.933 1610.67 763.133 1612 763.4C1613.6 763.4 1615.73 764.2 1618.4 765.8L1644.8 784.2C1646.67 785.8 1647.6 787.533 1647.6 789.4C1647.6 791 1646.8 792.733 1645.2 794.6L1634.4 807V839.4C1634.4 841.8 1634.4 844.867 1634.4 848.6C1634.67 852.333 1634.8 856.333 1634.8 860.6C1635.07 864.867 1635.33 869.267 1635.6 873.8C1635.87 878.333 1636.13 882.733 1636.4 887C1636.4 890.2 1634.67 892.867 1631.2 895C1627.73 897.4 1623.6 899 1618.8 899.8C1616.4 900.067 1614 900.2 1611.6 900.2C1609.2 900.467 1607.6 900.6 1606.8 900.6C1604.13 900.6 1601.73 899.267 1599.6 896.6C1597.73 894.2 1596.8 891 1596.8 887V877.8H1445.6V887C1445.6 890.2 1443.87 892.867 1440.4 895C1436.93 897.4 1432.67 899 1427.6 899.8C1425.2 900.067 1422.8 900.2 1420.4 900.2C1418.27 900.467 1416.67 900.6 1415.6 900.6C1412.4 900.6 1409.6 899.267 1407.2 896.6C1404.8 894.2 1403.73 891 1404 887C1404 884.333 1404 881.267 1404 877.8C1404.27 874.333 1404.53 870.867 1404.8 867.4C1405.07 863.667 1405.2 860.067 1405.2 856.6C1405.47 853.4 1405.6 850.333 1405.6 847.4ZM1445.6 836.6V864.6H1596.8V836.6H1445.6ZM1445.6 796.2V822.6H1596.8V796.2H1445.6Z" fill="black"/>
<path d="M1611.6 1012L1626.8 994C1628.4 992.4 1630.27 991.733 1632.4 992C1634.8 992 1636.93 992.667 1638.8 994L1670.4 1019.2C1672 1020.8 1672.8 1022.8 1672.8 1025.2C1672.8 1027.6 1672 1029.33 1670.4 1030.4L1657.6 1038.8V1079.2C1657.6 1081.87 1655.87 1084.27 1652.4 1086.4C1648.93 1088.27 1644.8 1089.6 1640 1090.4C1638.67 1090.67 1637.33 1090.93 1636 1091.2C1634.93 1091.2 1633.87 1091.2 1632.8 1091.2C1631.73 1091.2 1630.8 1091.2 1630 1091.2C1629.2 1091.2 1628.53 1091.2 1628 1091.2C1625.87 1091.2 1623.87 1090.8 1622 1090C1620.4 1088.93 1619.33 1087.33 1618.8 1085.2H1424V1128.8C1424 1148.8 1423.6 1168.4 1422.8 1187.6C1422 1206.8 1419.6 1225.2 1415.6 1242.8C1411.6 1260.93 1405.33 1278.27 1396.8 1294.8C1388.53 1311.33 1377.2 1326.8 1362.8 1341.2L1355.2 1338.4C1361.6 1323.47 1366.53 1308.67 1370 1294C1373.73 1279.33 1376.67 1263.87 1378.8 1247.6C1380.67 1231.07 1381.87 1213.2 1382.4 1194C1382.93 1174.8 1383.2 1153.07 1383.2 1128.8C1383.2 1115.47 1383.07 1102 1382.8 1088.4C1382.53 1074.8 1382.27 1061.87 1382 1049.6C1381.47 1037.33 1380.93 1026.27 1380.4 1016.4C1380.13 1006.53 1379.73 998.533 1379.2 992.4C1388 995.333 1397.2 998.8 1406.8 1002.8C1416.67 1006.53 1424.13 1009.6 1429.2 1012H1611.6ZM1617.6 1026H1424V1071.6H1617.6V1026ZM1480.4 1131.6C1471.6 1131.6 1463.07 1131.87 1454.8 1132.4C1446.53 1132.67 1440.53 1132.93 1436.8 1133.2L1430.4 1115.2C1434.67 1116 1441.73 1116.8 1451.6 1117.6C1461.73 1118.13 1471.33 1118.4 1480.4 1118.4H1622.4L1643.2 1094.4C1645.07 1092.27 1646.93 1091.2 1648.8 1091.2C1650.93 1091.2 1653.2 1092.4 1655.6 1094.8L1678 1120.8C1679.6 1122.93 1680 1125.33 1679.2 1128C1678.67 1130.4 1677.07 1131.6 1674.4 1131.6H1543.2C1537.33 1140.13 1530.93 1148.8 1524 1157.6C1517.33 1166.13 1511.33 1173.6 1506 1180C1521.2 1179.2 1538 1178 1556.4 1176.4C1574.8 1174.8 1590.93 1173.2 1604.8 1171.6C1602.13 1166.8 1598.8 1161.87 1594.8 1156.8C1590.8 1151.73 1586.67 1146.8 1582.4 1142L1585.6 1134.4C1597.07 1138.13 1608 1142.53 1618.4 1147.6C1629.07 1152.4 1637.07 1156.93 1642.4 1161.2C1646.13 1165.2 1649.33 1170.4 1652 1176.8C1654.93 1182.93 1656.4 1188.8 1656.4 1194.4C1656.4 1200.53 1654.27 1206.27 1650 1211.6C1646 1216.67 1640.8 1219.2 1634.4 1219.2C1632 1219.2 1629.07 1217.33 1625.6 1213.6C1622.4 1209.6 1619.6 1204.4 1617.2 1198C1616.67 1197.2 1616.13 1196.27 1615.6 1195.2C1615.33 1193.87 1614.93 1192.53 1614.4 1191.2C1613.87 1190.13 1613.33 1189.07 1612.8 1188C1612.27 1186.67 1611.87 1185.47 1611.6 1184.4C1602.27 1188.13 1591.2 1192 1578.4 1196C1565.6 1200 1552.4 1203.87 1538.8 1207.6C1525.2 1211.33 1511.87 1214.8 1498.8 1218C1485.73 1220.93 1474.13 1223.33 1464 1225.2V1231.2C1464 1235.2 1462.8 1237.33 1460.4 1237.6C1458.27 1237.87 1456.53 1236.4 1455.2 1233.2L1433.2 1184C1436.4 1184 1440 1183.87 1444 1183.6C1448 1183.33 1452 1183.07 1456 1182.8C1460 1182.8 1463.87 1182.67 1467.6 1182.4C1471.33 1182.13 1474.8 1181.87 1478 1181.6C1480.67 1175.2 1483.6 1167.47 1486.8 1158.4C1490.27 1149.33 1493.33 1140.4 1496 1131.6H1480.4ZM1482 1264C1473.2 1264 1464.67 1264.27 1456.4 1264.8C1448.13 1265.07 1442.13 1265.33 1438.4 1265.6L1431.6 1248C1436.4 1248.8 1443.6 1249.47 1453.2 1250C1463.07 1250.27 1472.67 1250.4 1482 1250.4H1517.6C1517.6 1245.33 1517.2 1239.33 1516.4 1232.4C1515.6 1225.47 1514.8 1219.6 1514 1214.8L1564.4 1222C1569.2 1222.8 1572.27 1224.8 1573.6 1228C1575.2 1231.2 1574 1233.73 1570 1235.6L1556.8 1242.4V1250.4H1596.8L1619.6 1224C1621.47 1221.6 1623.47 1220.53 1625.6 1220.8C1628 1220.8 1630.4 1222 1632.8 1224.4L1656.4 1252C1658.53 1254.67 1659.2 1257.33 1658.4 1260C1657.6 1262.67 1655.6 1264 1652.4 1264H1556.8V1313.2H1622.4L1644.8 1285.2C1647.2 1282.27 1649.47 1280.93 1651.6 1281.2C1653.73 1281.47 1655.87 1282.8 1658 1285.2L1683.6 1316C1685.47 1318.4 1685.87 1320.8 1684.8 1323.2C1683.73 1325.87 1682 1327.2 1679.6 1327.2H1450.4C1441.6 1327.2 1433.07 1327.33 1424.8 1327.6C1416.8 1327.87 1411.07 1328 1407.6 1328L1400.4 1310.4C1405.2 1311.2 1412.4 1311.87 1422 1312.4C1431.87 1312.93 1441.33 1313.2 1450.4 1313.2H1517.6V1264H1482Z" fill="black"/>
<rect x="49.0309" y="389.359" width="632.265" height="76.955" rx="38.4775" transform="rotate(-29 49.0309 389.359)" fill="black"/>
<rect x="441.458" width="782.643" height="76.955" rx="38.4775" transform="rotate(29 441.458 0)" fill="black"/>
<rect x="296" y="326" width="615" height="71" transform="rotate(90 296 326)" fill="black"/>
<rect x="956" y="326" width="615" height="71" transform="rotate(90 956 326)" fill="black"/>
<rect y="883" width="1218" height="72" rx="36" fill="black"/>
<path d="M392 528C392 512.536 404.536 500 420 500H747C762.464 500 775 512.536 775 528C775 543.464 762.464 556 747 556H420C404.536 556 392 543.464 392 528Z" fill="black"/>
<path d="M393 652.5C393 637.312 405.312 625 420.5 625H737.5C752.688 625 765 637.312 765 652.5C765 667.688 752.688 680 737.5 680H420.5C405.312 680 393 667.688 393 652.5Z" fill="black"/>
<g filter="url(#filter0_d_5_4)">
<path d="M372 785.5C372 772.521 382.521 762 395.5 762H751.5C764.479 762 775 772.521 775 785.5C775 798.479 764.479 809 751.5 809H395.5C382.521 809 372 798.479 372 785.5Z" fill="black"/>
</g>
<path d="M747 809C731.536 809 719 796.464 719 781L719 528C719 512.536 731.536 500 747 500C762.464 500 775 512.536 775 528L775 781C775 796.464 762.464 809 747 809Z" fill="black"/>
<path d="M585 912C569.536 912 557 899.464 557 884L557 354C557 338.536 569.536 326 585 326C600.464 326 613 338.536 613 354L613 884C613 899.464 600.464 912 585 912Z" fill="black"/>
<mask id="path-14-inside-1_5_4" fill="white">
<rect x="199" y="996" width="805" height="339" rx="50"/>
</mask>
<rect x="199" y="996" width="805" height="339" rx="50" stroke="black" stroke-width="120" mask="url(#path-14-inside-1_5_4)"/>
<path d="M428 1145C428 1138.37 433.373 1133 440 1133H777C783.627 1133 789 1138.37 789 1145V1187C789 1193.63 783.627 1199 777 1199H440C433.373 1199 428 1193.63 428 1187V1145Z" fill="black"/>
<defs>
<filter id="filter0_d_5_4" x="368" y="762" width="411" height="55" filterUnits="userSpaceOnUse" color-interpolation-filters="sRGB">
<feFlood flood-opacity="0" result="BackgroundImageFix"/>
<feColorMatrix in="SourceAlpha" type="matrix" values="0 0 0 0 0 0 0 0 0 0 0 0 0 0 0 0 0 0 127 0" result="hardAlpha"/>
<feOffset dy="4"/>
<feGaussianBlur stdDeviation="2"/>
<feComposite in2="hardAlpha" operator="out"/>
<feColorMatrix type="matrix" values="0 0 0 0 0 0 0 0 0 0 0 0 0 0 0 0 0 0 0.25 0"/>
<feBlend mode="normal" in2="BackgroundImageFix" result="effect1_dropShadow_5_4"/>
<feBlend mode="normal" in="SourceGraphic" in2="effect1_dropShadow_5_4" result="shape"/>
</filter>
</defs>
</svg>
